<svg xmlns="http://www.w3.org/2000/svg" version="1.1" width="1772px" height="770px" style="shape-rendering:geometricPrecision; text-rendering:geometricPrecision; image-rendering:optimizeQuality; fill-rule:evenodd; clip-rule:evenodd" xmlns:xlink="http://www.w3.org/1999/xlink">
<g>
    <animate attributeName="opacity"
             values="0;1;0" dur="3s"
             repeatCount="indefinite"/>
    <path style="opacity:0.983" fill="#c1d20f" d="M 1408.5,51.5 C 1409.83,51.5 1411.17,51.5 1412.5,51.5C 1412.83,66.8478 1412.5,82.1811 1411.5,97.5C 1378.95,110.943 1346.28,124.11 1313.5,137C 1346.28,150.722 1379.28,163.888 1412.5,176.5C 1412.83,248.503 1412.5,320.503 1411.5,392.5C 1359.5,364.833 1307.5,337.167 1255.5,309.5C 1254.33,244.503 1254.17,179.503 1255,114.5C 1306.37,93.7714 1357.54,72.7714 1408.5,51.5 Z"/></g>
<g>
    <animate attributeName="opacity"
             values="1;0;1" dur="3s"
             repeatCount="indefinite"/>
    <path style="opacity:0.983" fill="#5a676f" d="M 1422.5,51.5 C 1475.25,71.7883 1527.75,92.7883 1580,114.5C 1580.83,179.503 1580.67,244.503 1579.5,309.5C 1527.5,337.167 1475.5,364.833 1423.5,392.5C 1422.5,320.503 1422.17,248.503 1422.5,176.5C 1455.72,163.888 1488.72,150.722 1521.5,137C 1488.72,124.11 1456.05,110.943 1423.5,97.5C 1422.5,82.1811 1422.17,66.8478 1422.5,51.5 Z"/></g>
<g><path style="opacity:0.977" fill="#5a676f" d="M 514.5,422.5 C 530.833,422.5 547.167,422.5 563.5,422.5C 563.5,448.5 563.5,474.5 563.5,500.5C 581.833,500.5 600.167,500.5 618.5,500.5C 618.5,474.5 618.5,448.5 618.5,422.5C 634.833,422.5 651.167,422.5 667.5,422.5C 667.5,448.5 667.5,474.5 667.5,500.5C 694.841,500.167 722.175,500.5 749.5,501.5C 736.236,513.524 725.236,527.358 716.5,543C 700.17,543.5 683.837,543.667 667.5,543.5C 667.333,572.502 667.5,601.502 668,630.5C 669.768,656.308 683.601,668.642 709.5,667.5C 709.5,682.5 709.5,697.5 709.5,712.5C 656.359,715.855 626.193,691.188 619,638.5C 618.5,606.835 618.333,575.168 618.5,543.5C 600.167,543.5 581.833,543.5 563.5,543.5C 563.333,572.502 563.5,601.502 564,630.5C 565.718,656.383 579.552,668.717 605.5,667.5C 605.5,682.5 605.5,697.5 605.5,712.5C 553.353,716.021 523.187,692.021 515,640.5C 514.5,608.168 514.333,575.835 514.5,543.5C 505.808,543.831 497.141,543.498 488.5,542.5C 480.467,526.763 469.801,513.096 456.5,501.5C 475.822,500.5 495.155,500.167 514.5,500.5C 514.5,474.5 514.5,448.5 514.5,422.5 Z"/></g>
<g><path style="opacity:0.975" fill="#5a676f" d="M 1079.5,422.5 C 1096.17,422.5 1112.83,422.5 1129.5,422.5C 1129.33,456.835 1129.5,491.168 1130,525.5C 1150.61,502.209 1176.44,492.709 1207.5,497C 1243.71,503.541 1269.88,523.374 1286,556.5C 1299.21,588.238 1299.88,620.238 1288,652.5C 1268.15,694.354 1234.98,716.021 1188.5,717.5C 1134.86,715.105 1099.69,688.438 1083,637.5C 1081.74,631.878 1080.74,626.211 1080,620.5C 1079.5,554.501 1079.33,488.501 1079.5,422.5 Z M 1179.5,541.5 C 1218.27,541.145 1240.77,560.145 1247,598.5C 1249.5,627.051 1239,649.218 1215.5,665C 1178.8,679.099 1151.63,668.599 1134,633.5C 1123.31,601.431 1130.47,574.264 1155.5,552C 1162.99,547.08 1170.99,543.58 1179.5,541.5 Z"/></g>
<g><path style="opacity:0.974" fill="#5a676f" d="M 138.5,495.5 C 166.464,492.323 191.797,498.823 214.5,515C 233.968,532.439 244.468,554.273 246,580.5C 246.5,624.499 246.667,668.499 246.5,712.5C 229.833,712.5 213.167,712.5 196.5,712.5C 196.975,666.128 196.475,619.794 195,573.5C 188.599,552.958 174.599,542.958 153,543.5C 125.091,544.444 109.758,558.778 107,586.5C 106.5,628.499 106.333,670.499 106.5,712.5C 90.1667,712.5 73.8333,712.5 57.5,712.5C 57.3333,666.165 57.5,619.832 58,573.5C 67.0401,528.958 93.8734,502.958 138.5,495.5 Z"/></g>
<g><path style="opacity:0.975" fill="#5a676f" d="M 361.5,495.5 C 409.213,491.771 445.38,510.105 470,550.5C 476.949,563.682 481.283,577.682 483,592.5C 483.5,632.499 483.667,672.499 483.5,712.5C 468.167,712.5 452.833,712.5 437.5,712.5C 437.666,703.161 437.5,693.827 437,684.5C 415.933,709.198 389.1,720.031 356.5,717C 314.823,708.661 286.656,684.495 272,644.5C 258.03,596.876 268.53,555.71 303.5,521C 320.518,507.163 339.852,498.663 361.5,495.5 Z M 366.5,541.5 C 402.722,540.71 424.889,558.043 433,593.5C 437.571,623.174 427.738,646.674 403.5,664C 377.51,676.899 354.01,673.399 333,653.5C 312.99,627.059 310.657,599.059 326,569.5C 335.609,554.368 349.109,545.035 366.5,541.5 Z"/></g>
<g><path style="opacity:0.972" fill="#5a676f" d="M 816.5,495.5 C 878.279,492.627 917.279,520.96 933.5,580.5C 881.729,602.933 829.729,625.1 777.5,647C 794.15,669.809 816.483,678.476 844.5,673C 858.183,669.669 868.85,662.169 876.5,650.5C 894.5,649.167 912.5,649.167 930.5,650.5C 915.765,688.729 888.098,710.895 847.5,717C 797.437,721.553 759.604,702.386 734,659.5C 711.566,609.867 718.732,565.034 755.5,525C 773.006,509.246 793.339,499.413 816.5,495.5 Z M 824.5,537.5 C 846.297,536.644 863.964,544.644 877.5,561.5C 840.867,577.158 804.201,592.825 767.5,608.5C 766.213,584.246 774.88,564.413 793.5,549C 803.028,542.661 813.361,538.828 824.5,537.5 Z"/></g>
<g><path style="opacity:0.964" fill="#5a676f" d="M 1032.5,495.5 C 1041.75,495.182 1050.92,495.515 1060,496.5C 1060.5,511.496 1060.67,526.496 1060.5,541.5C 1041.58,538.929 1025.41,544.263 1012,557.5C 1006.47,564.556 1003.14,572.556 1002,581.5C 1001.5,625.165 1001.33,668.832 1001.5,712.5C 984.833,712.5 968.167,712.5 951.5,712.5C 951.333,669.499 951.5,626.499 952,583.5C 955.786,532.888 982.619,503.555 1032.5,495.5 Z"/></g>
<g><path style="opacity:0.974" fill="#5a676f" d="M 1404.5,495.5 C 1462.56,493.433 1501.06,519.766 1520,574.5C 1531.29,620.2 1520.12,659.367 1486.5,692C 1448.73,721.532 1408.4,725.532 1365.5,704C 1329.97,681.464 1311.64,648.964 1310.5,606.5C 1311.66,566.003 1328.66,534.169 1361.5,511C 1374.9,502.955 1389.23,497.788 1404.5,495.5 Z M 1407.5,540.5 C 1437.13,537.891 1457.63,550.224 1469,577.5C 1478.08,603.204 1475.41,627.537 1461,650.5C 1444.09,670.8 1422.92,676.967 1397.5,669C 1375.66,658.806 1363.49,641.639 1361,617.5C 1358.46,596.142 1363.46,576.809 1376,559.5C 1384.68,549.92 1395.18,543.587 1407.5,540.5 Z"/></g>
<g><path style="opacity:0.971" fill="#5a676f" d="M 1533.5,500.5 C 1550.17,500.5 1566.83,500.5 1583.5,500.5C 1583.33,516.17 1583.5,531.837 1584,547.5C 1589.59,576.049 1606.75,587.882 1635.5,583C 1654.44,575.358 1663.94,561.191 1664,540.5C 1664.5,527.171 1664.67,513.837 1664.5,500.5C 1680.83,500.5 1697.17,500.5 1713.5,500.5C 1713.67,517.837 1713.5,535.17 1713,552.5C 1710.34,565.824 1705.34,578.158 1698,589.5C 1693.17,595.667 1687.67,601.167 1681.5,606C 1698.32,620.461 1708.82,638.628 1713,660.5C 1713.5,677.83 1713.67,695.163 1713.5,712.5C 1697.17,712.5 1680.83,712.5 1664.5,712.5C 1664.67,699.163 1664.5,685.829 1664,672.5C 1663.58,645.585 1650.08,630.585 1623.5,627.5C 1600.72,630.115 1587.55,642.782 1584,665.5C 1583.5,681.163 1583.33,696.83 1583.5,712.5C 1566.83,712.5 1550.17,712.5 1533.5,712.5C 1533.33,698.829 1533.5,685.163 1534,671.5C 1534.39,645.305 1544.22,623.472 1563.5,606C 1550,594.841 1541.16,580.674 1537,563.5C 1535.23,556.273 1534.23,548.94 1534,541.5C 1533.5,527.837 1533.33,514.171 1533.5,500.5 Z"/></g>
</svg>
